<mxfile host="app.diagrams.net" agent="Mozilla/5.0 (Macintosh; Intel Mac OS X 10_15_7) AppleWebKit/605.1.15 (KHTML, like Gecko) Version/18.3.1 Safari/605.1.15" version="26.1.3">
  <diagram name="Page-1" id="SHrb6NawBMlzmM42IM2I">
    <mxGraphModel dx="1434" dy="827" grid="0" gridSize="10" guides="1" tooltips="1" connect="1" arrows="1" fold="1" page="1" pageScale="1" pageWidth="827" pageHeight="583" math="0" shadow="0">
      <root>
        <mxCell id="0" />
        <mxCell id="1" parent="0" />
        <mxCell id="AoI5bQd-lZXyI8cGa38R-3" style="edgeStyle=orthogonalEdgeStyle;rounded=0;orthogonalLoop=1;jettySize=auto;html=1;" edge="1" parent="1" source="AoI5bQd-lZXyI8cGa38R-1" target="AoI5bQd-lZXyI8cGa38R-2">
          <mxGeometry relative="1" as="geometry" />
        </mxCell>
        <mxCell id="AoI5bQd-lZXyI8cGa38R-1" value="CloudFormation" style="outlineConnect=0;dashed=0;verticalLabelPosition=bottom;verticalAlign=top;align=center;html=1;shape=mxgraph.aws3.cloudformation;fillColor=#759C3E;gradientColor=none;" vertex="1" parent="1">
          <mxGeometry x="384" y="90" width="76.5" height="93" as="geometry" />
        </mxCell>
        <mxCell id="AoI5bQd-lZXyI8cGa38R-6" value="Creates" style="edgeStyle=orthogonalEdgeStyle;rounded=0;orthogonalLoop=1;jettySize=auto;html=1;" edge="1" parent="1" source="AoI5bQd-lZXyI8cGa38R-2" target="AoI5bQd-lZXyI8cGa38R-4">
          <mxGeometry x="0.1496" y="22" relative="1" as="geometry">
            <mxPoint as="offset" />
          </mxGeometry>
        </mxCell>
        <mxCell id="AoI5bQd-lZXyI8cGa38R-7" value="Creates" style="edgeStyle=orthogonalEdgeStyle;rounded=0;orthogonalLoop=1;jettySize=auto;html=1;" edge="1" parent="1" source="AoI5bQd-lZXyI8cGa38R-2" target="AoI5bQd-lZXyI8cGa38R-5">
          <mxGeometry x="0.6182" y="34" relative="1" as="geometry">
            <mxPoint as="offset" />
          </mxGeometry>
        </mxCell>
        <mxCell id="AoI5bQd-lZXyI8cGa38R-11" value="Creates" style="edgeStyle=orthogonalEdgeStyle;rounded=0;orthogonalLoop=1;jettySize=auto;html=1;" edge="1" parent="1" source="AoI5bQd-lZXyI8cGa38R-2" target="AoI5bQd-lZXyI8cGa38R-8">
          <mxGeometry x="0.5605" y="33" relative="1" as="geometry">
            <mxPoint as="offset" />
          </mxGeometry>
        </mxCell>
        <mxCell id="AoI5bQd-lZXyI8cGa38R-2" value="create-elb-inventory" style="sketch=0;outlineConnect=0;fontColor=#232F3E;gradientColor=none;fillColor=#E7157B;strokeColor=none;dashed=0;verticalLabelPosition=bottom;verticalAlign=top;align=center;html=1;fontSize=12;fontStyle=0;aspect=fixed;pointerEvents=1;shape=mxgraph.aws4.stack;" vertex="1" parent="1">
          <mxGeometry x="384" y="236" width="78" height="76" as="geometry" />
        </mxCell>
        <mxCell id="AoI5bQd-lZXyI8cGa38R-9" value="json&lt;div&gt;dump&lt;/div&gt;" style="edgeStyle=orthogonalEdgeStyle;rounded=0;orthogonalLoop=1;jettySize=auto;html=1;" edge="1" parent="1" source="AoI5bQd-lZXyI8cGa38R-4" target="AoI5bQd-lZXyI8cGa38R-8">
          <mxGeometry x="0.074" y="29" relative="1" as="geometry">
            <mxPoint y="1" as="offset" />
          </mxGeometry>
        </mxCell>
        <mxCell id="AoI5bQd-lZXyI8cGa38R-4" value="elb-tg-inventory" style="sketch=0;outlineConnect=0;fontColor=#232F3E;gradientColor=none;fillColor=#ED7100;strokeColor=none;dashed=0;verticalLabelPosition=bottom;verticalAlign=top;align=center;html=1;fontSize=12;fontStyle=0;aspect=fixed;pointerEvents=1;shape=mxgraph.aws4.lambda_function;" vertex="1" parent="1">
          <mxGeometry x="399" y="394.5" width="48" height="48" as="geometry" />
        </mxCell>
        <mxCell id="AoI5bQd-lZXyI8cGa38R-10" value="Daily Trigger" style="edgeStyle=orthogonalEdgeStyle;rounded=0;orthogonalLoop=1;jettySize=auto;html=1;" edge="1" parent="1" source="AoI5bQd-lZXyI8cGa38R-5" target="AoI5bQd-lZXyI8cGa38R-4">
          <mxGeometry x="-0.081" y="-11" relative="1" as="geometry">
            <mxPoint as="offset" />
          </mxGeometry>
        </mxCell>
        <mxCell id="AoI5bQd-lZXyI8cGa38R-5" value="Scheduler" style="sketch=0;outlineConnect=0;fontColor=#232F3E;gradientColor=none;fillColor=#E7157B;strokeColor=none;dashed=0;verticalLabelPosition=bottom;verticalAlign=top;align=center;html=1;fontSize=12;fontStyle=0;aspect=fixed;pointerEvents=1;shape=mxgraph.aws4.eventbridge_scheduler;" vertex="1" parent="1">
          <mxGeometry x="172" y="384.5" width="68" height="68" as="geometry" />
        </mxCell>
        <mxCell id="AoI5bQd-lZXyI8cGa38R-8" value="" style="sketch=0;outlineConnect=0;fontColor=#232F3E;gradientColor=none;fillColor=#7AA116;strokeColor=none;dashed=0;verticalLabelPosition=bottom;verticalAlign=top;align=center;html=1;fontSize=12;fontStyle=0;aspect=fixed;pointerEvents=1;shape=mxgraph.aws4.bucket_with_objects;" vertex="1" parent="1">
          <mxGeometry x="580" y="389.90000000000003" width="55" height="57.2" as="geometry" />
        </mxCell>
      </root>
    </mxGraphModel>
  </diagram>
</mxfile>
